<svg xmlns="http://www.w3.org/2000/svg" width="600" height="720" viewBox="0 0 600 720">
  <rect width="600" height="720" rx="28" fill="#FEF3C7"/>

  <g transform="translate(60,80)">
    <rect width="480" height="560" rx="20" fill="#FFFFFF" stroke="#E7E5DE" stroke-width="1.5"/>

    <circle cx="34" cy="34" r="5" fill="#FCA5A5"/>
    <circle cx="52" cy="34" r="5" fill="#FDE68A"/>
    <circle cx="70" cy="34" r="5" fill="#86EFAC"/>
    <text x="94" y="39" font-family="Helvetica, Arial, sans-serif" font-size="11" font-weight="700" letter-spacing="1.5" fill="#A8A29E">CREATE CAMPAIGN</text>
    <line x1="24" y1="58" x2="456" y2="58" stroke="#F1F0EB" stroke-width="1.5"/>

    <text x="34" y="96" font-family="Helvetica, Arial, sans-serif" font-size="11" font-weight="700" letter-spacing="1" fill="#78716C">FUNDRAISER TITLE</text>
    <rect x="34" y="108" width="412" height="52" rx="12" fill="#FFFFFF" stroke="#E7E5DE" stroke-width="1.5"/>
    <text x="52" y="140" font-family="Helvetica, Arial, sans-serif" font-size="16" fill="#292524">Your fundraiser title</text>

    <text x="34" y="196" font-family="Helvetica, Arial, sans-serif" font-size="11" font-weight="700" letter-spacing="1" fill="#78716C">FUNDRAISING GOAL</text>
    <rect x="34" y="208" width="412" height="52" rx="12" fill="#FFFFFF" stroke="#E7E5DE" stroke-width="1.5"/>
    <text x="52" y="240" font-family="Helvetica, Arial, sans-serif" font-size="16" fill="#292524">$10,000</text>

    <rect x="34" y="284" width="412" height="88" rx="16" fill="#FEF9E7" stroke="#FDECC8" stroke-width="1.5"/>
    <circle cx="66" cy="316" r="14" fill="#FDE68A"/>
    <path d="M60 312a6 6 0 1 1 12 0c0 3-2 4-2 7h-8c0-3-2-4-2-7z" fill="#92400E"/>
    <line x1="63" y1="323" x2="69" y2="323" stroke="#92400E" stroke-width="1.5"/>
    <text x="90" y="322" font-family="Helvetica, Arial, sans-serif" font-size="14" font-weight="700" fill="#92400E">The first photo you add becomes</text>
    <text x="90" y="342" font-family="Helvetica, Arial, sans-serif" font-size="14" font-weight="700" fill="#92400E">your fundraiser cover.</text>

    <rect x="34" y="404" width="412" height="16" rx="8" fill="#F1F0EB"/>
    <rect x="34" y="436" width="300" height="16" rx="8" fill="#F1F0EB"/>
  </g>
</svg>
