<svg xmlns="http://www.w3.org/2000/svg" width="600" height="720" viewBox="0 0 600 720">
  <rect width="600" height="720" rx="28" fill="#DBEAFE"/>

  <g transform="translate(60,80)">
    <rect width="480" height="560" rx="20" fill="#FFFFFF" stroke="#E7E5DE" stroke-width="1.5"/>

    <text x="34" y="46" font-family="Helvetica, Arial, sans-serif" font-size="11" font-weight="700" letter-spacing="1.5" fill="#A8A29E">PAYOUT SETTINGS</text>

    <rect x="336" y="26" width="110" height="28" rx="14" fill="#D1FAE5"/>
    <path d="M354 40l4 4 8-8" stroke="#065F46" stroke-width="2" fill="none" stroke-linecap="round" stroke-linejoin="round"/>
    <text x="368" y="45" font-family="Helvetica, Arial, sans-serif" font-size="11" font-weight="700" fill="#065F46">Secured</text>

    <line x1="24" y1="72" x2="456" y2="72" stroke="#F1F0EB" stroke-width="1.5"/>

    <text x="34" y="112" font-family="Helvetica, Arial, sans-serif" font-size="11" font-weight="700" letter-spacing="1" fill="#78716C">PAYOUT ACCOUNT</text>
    <rect x="34" y="124" width="412" height="64" rx="14" fill="#F8FAFC" stroke="#E7E5DE" stroke-width="1.5"/>
    <text x="52" y="152" font-family="Helvetica, Arial, sans-serif" font-size="16" font-weight="700" letter-spacing="2" fill="#1C1917">•••• •••• •••• 6789</text>
    <text x="52" y="174" font-family="Helvetica, Arial, sans-serif" font-size="12" font-weight="700" fill="#78716C">Bank account · verified</text>
    <circle cx="422" cy="156" r="5" fill="#22C55E"/>

    <rect x="34" y="216" width="412" height="64" rx="14" fill="#EFF6FF" stroke="#DBEAFE" stroke-width="1.5"/>
    <circle cx="66" cy="248" r="12" fill="#BFDBFE"/>
    <rect x="61" y="242" width="10" height="8" rx="1.5" fill="#1E40AF"/>
    <path d="M63 242v-3a3 3 0 0 1 6 0v3" stroke="#1E40AF" stroke-width="1.5" fill="none"/>
    <text x="90" y="244" font-family="Helvetica, Arial, sans-serif" font-size="13" font-weight="700" fill="#1E40AF">Next payout</text>
    <text x="90" y="262" font-family="Helvetica, Arial, sans-serif" font-size="13" font-weight="700" fill="#1E40AF">Deposited securely</text>

    <rect x="34" y="332" width="412" height="16" rx="8" fill="#F1F0EB"/>
    <rect x="34" y="364" width="300" height="16" rx="8" fill="#F1F0EB"/>
  </g>
</svg>
